<svg width="1600" height="520" viewBox="0 0 1600 520" fill="none" xmlns="http://www.w3.org/2000/svg">
  <defs>
    <linearGradient id="bg" x1="0" y1="0" x2="1600" y2="520" gradientUnits="userSpaceOnUse"><stop stop-color="#F7FAFC"/><stop offset="0.58" stop-color="#EDF5F7"/><stop offset="1" stop-color="#E4F1F5"/></linearGradient>
    <radialGradient id="glow" cx="0" cy="0" r="1" gradientUnits="userSpaceOnUse" gradientTransform="translate(1375 72) rotate(136) scale(590 430)"><stop stop-color="#0B8FA3" stop-opacity="0.16"/><stop offset="1" stop-color="#0B8FA3" stop-opacity="0"/></radialGradient>
    <pattern id="grid" width="56" height="56" patternUnits="userSpaceOnUse"><path d="M56 0H0V56" fill="none" stroke="#173A4A" stroke-opacity="0.06"/></pattern><filter id="soft" x="-100%" y="-100%" width="300%" height="300%"><feGaussianBlur stdDeviation="9"/></filter>
    <style>@keyframes signal{0%,100%{opacity:.4}50%{opacity:1}}.signal{animation:signal 3.2s ease-in-out infinite}@media (prefers-reduced-motion:reduce){.signal{animation:none;opacity:.85}}</style>
  </defs>
  <rect width="1600" height="520" rx="30" fill="url(#bg)"/><rect width="1600" height="520" rx="30" fill="url(#grid)"/><rect width="1600" height="520" rx="30" fill="url(#glow)"/>
  <path d="M0 437C220 374 342 473 563 412C791 349 865 430 1088 348C1271 280 1400 298 1600 218" stroke="#0B8FA3" stroke-opacity="0.13" stroke-width="2"/><path d="M0 470C229 405 354 504 575 445C804 384 881 462 1101 382C1281 316 1415 330 1600 253" stroke="#C65D39" stroke-opacity="0.1" stroke-width="2"/>
  <g transform="translate(82 64)">
    <rect width="278" height="40" rx="20" fill="#0B8FA3" fill-opacity="0.08" stroke="#0B8FA3" stroke-opacity="0.4"/><circle class="signal" cx="24" cy="20" r="6" fill="#0B8FA3"/><text x="45" y="27" fill="#294E5E" font-family="ui-monospace,SFMono-Regular,Consolas,monospace" font-size="18" font-weight="700" letter-spacing="1.9">RUI SÁ / PROFILE LIVE</text>
    <text x="0" y="130" fill="#102D3B" font-family="Inter,Segoe UI,Arial,sans-serif" font-size="82" font-weight="850" letter-spacing="-3">COMPUTER</text><text x="0" y="211" fill="#102D3B" font-family="Inter,Segoe UI,Arial,sans-serif" font-size="82" font-weight="850" letter-spacing="-3">ENGINEERING</text><rect x="2" y="239" width="118" height="5" rx="2.5" fill="#C65D39"/>
    <text x="0" y="289" fill="#087E8B" font-family="ui-monospace,SFMono-Regular,Consolas,monospace" font-size="22" font-weight="700" letter-spacing="1.8">SOFTWARE SYSTEMS · AI / ML · ENTERPRISE DELIVERY</text><text x="0" y="338" fill="#173A4A" font-family="Inter,Segoe UI,Arial,sans-serif" font-size="27" font-weight="550">I turn complex requirements into software</text><text x="0" y="376" fill="#486B79" font-family="Inter,Segoe UI,Arial,sans-serif" font-size="27">you can inspect, test and explain.</text><text x="0" y="426" fill="#486B79" font-family="ui-monospace,SFMono-Regular,Consolas,monospace" font-size="18" letter-spacing="1.7">SETÚBAL · PORTUGAL / @RUIMIGUELYO</text>
  </g>
  <g transform="translate(1010 48)">
    <rect width="508" height="424" rx="23" fill="#FFFFFF" fill-opacity="0.83" stroke="#173A4A" stroke-opacity="0.15"/><text x="28" y="43" fill="#486B79" font-family="ui-monospace,SFMono-Regular,Consolas,monospace" font-size="18" font-weight="700" letter-spacing="1.5">ENGINEERING SYSTEM / ONLINE</text><circle class="signal" cx="473" cy="36" r="7" fill="#0B8FA3"/><circle cx="473" cy="36" r="15" fill="#0B8FA3" fill-opacity="0.11" filter="url(#soft)"/><path d="M48 76V347" stroke="#0B8FA3" stroke-opacity="0.43" stroke-width="3"/>
    <g transform="translate(30 91)"><circle cx="18" cy="39" r="10" fill="#0B8FA3"/><path d="M28 39H49" stroke="#0B8FA3" stroke-width="2"/><rect x="49" width="405" height="78" rx="13" fill="#0B8FA3" fill-opacity="0.055" stroke="#0B8FA3" stroke-opacity="0.32"/><text x="70" y="29" fill="#087E8B" font-family="ui-monospace,SFMono-Regular,Consolas,monospace" font-size="18" font-weight="700" letter-spacing="1.4">01 / SOFTWARE SYSTEMS</text><text x="70" y="59" fill="#102D3B" font-family="Inter,Segoe UI,Arial,sans-serif" font-size="23" font-weight="650">Python · TypeScript · React · SQL</text></g>
    <g transform="translate(30 189)"><circle cx="18" cy="39" r="10" fill="#2457C5"/><path d="M28 39H49" stroke="#2457C5" stroke-width="2"/><rect x="49" width="405" height="78" rx="13" fill="#2457C5" fill-opacity="0.05" stroke="#2457C5" stroke-opacity="0.28"/><text x="70" y="29" fill="#2457C5" font-family="ui-monospace,SFMono-Regular,Consolas,monospace" font-size="18" font-weight="700" letter-spacing="1.4">02 / AI + ML LAB</text><text x="70" y="59" fill="#102D3B" font-family="Inter,Segoe UI,Arial,sans-serif" font-size="23" font-weight="650">JAX · Flax · PyTorch · LLM eval</text></g>
    <g transform="translate(30 287)"><circle cx="18" cy="39" r="10" fill="#C65D39"/><path d="M28 39H49" stroke="#C65D39" stroke-width="2"/><rect x="49" width="405" height="78" rx="13" fill="#C65D39" fill-opacity="0.05" stroke="#C65D39" stroke-opacity="0.28"/><text x="70" y="29" fill="#B44C2B" font-family="ui-monospace,SFMono-Regular,Consolas,monospace" font-size="18" font-weight="700" letter-spacing="1.4">03 / ENTERPRISE SAP</text><text x="70" y="59" fill="#102D3B" font-family="Inter,Segoe UI,Arial,sans-serif" font-size="23" font-weight="650">ABAP · FI/CO · SD/MM · MM/SRM</text></g>
    <text x="79" y="402" fill="#486B79" font-family="ui-monospace,SFMono-Regular,Consolas,monospace" font-size="16" font-weight="700" letter-spacing="1.3">REQUIREMENTS → CODE → TEST → DELIVER</text>
  </g>
</svg>
